<svg width="390" height="449" viewBox="0 0 390 449" fill="none" xmlns="http://www.w3.org/2000/svg">
<path d="M80.0248 310.631C80.1751 313.562 82.5923 315.904 85.5606 315.904C88.5288 315.904 91.1214 313.412 91.1214 310.343C91.1214 307.275 88.629 304.782 85.5606 304.782C82.9931 304.782 80.864 306.523 80.2127 308.878H9.02444C8.58609 305.171 5.46751 302.29 1.64759 302.29C-2.47291 302.29 -5.81689 305.634 -5.81689 309.755C-5.81689 313.875 -2.47291 317.219 1.64759 317.219C5.46751 317.219 8.58609 314.338 9.02444 310.631H80.0123H80.0248Z" fill="#2A9DF4"/>
<path d="M318.964 156.62H271.434C270.996 152.912 267.877 150.032 264.057 150.032C259.937 150.032 256.593 153.376 256.593 157.496C256.593 161.617 259.937 164.961 264.057 164.961C267.877 164.961 270.996 162.08 271.434 158.373H320.717V86.8842H364.653V134.201H425.571V199.428C422.916 199.854 420.887 202.133 420.887 204.901C420.887 207.969 423.379 210.462 426.448 210.462C429.516 210.462 432.008 207.969 432.008 204.901C432.008 202.133 429.98 199.854 427.324 199.428V132.435H366.406V86.8716H414.437V26.2539H412.683V85.1182H366.406V50.8517H364.653V85.1182H320.717V56.1244H318.964V85.1182H271.522V37.9641H269.768V86.8716H318.964V156.607V156.62Z" fill="#2A9DF4"/>
<path d="M198.918 335.517V291.795C201.573 291.369 203.602 289.089 203.602 286.322C203.602 283.253 201.11 280.761 198.041 280.761C194.973 280.761 192.48 283.253 192.48 286.322C192.48 289.089 194.509 291.369 197.165 291.795V337.27H232.796V335.517H198.918Z" fill="#2A9DF4"/>
<path d="M388.536 273.384V214.582H264.069V216.336H386.783V273.384C383.075 273.822 380.195 276.941 380.195 280.761C380.195 284.881 383.539 288.225 387.659 288.225C391.78 288.225 395.124 284.881 395.124 280.761C395.124 276.941 392.243 273.822 388.536 273.384Z" fill="#2A9DF4"/>
<path d="M256.592 207.994C252.472 207.994 249.128 211.338 249.128 215.459C249.128 219.579 252.472 222.923 256.592 222.923C260.713 222.923 264.057 219.579 264.057 215.459C264.057 211.338 260.713 207.994 256.592 207.994Z" fill="#2A9DF4"/>
<path d="M292.462 289.39C288.342 289.39 284.998 292.734 284.998 296.855C284.998 300.975 288.342 304.319 292.462 304.319C296.583 304.319 299.927 300.975 299.927 296.855C299.927 292.734 296.583 289.39 292.462 289.39Z" fill="#2A9DF4"/>
<path d="M237.718 331.484C235.001 331.484 232.796 333.689 232.796 336.406C232.796 339.124 235.001 341.329 237.718 341.329C240.436 341.329 242.64 339.124 242.64 336.406C242.64 333.689 240.436 331.484 237.718 331.484Z" fill="#2A9DF4"/>
<path d="M156.486 323.957V216.348H202.412V115.402H260.5C260.926 118.057 263.205 120.086 265.973 120.086C269.042 120.086 271.534 117.594 271.534 114.525C271.534 111.457 269.042 108.965 265.973 108.965C263.205 108.965 260.926 110.994 260.5 113.649H202.412V37.9768H200.659V113.649H156.498V0.491455H154.745V113.649H105.186V37.9768H103.433V115.402H154.745V147.214H99.9258V191.725H18.5052V86.8843H34.5488C34.9872 90.5915 38.1057 93.472 41.9256 93.472C46.0461 93.472 49.3901 90.128 49.3901 86.0075C49.3901 81.887 46.0461 78.543 41.9256 78.543C38.1057 78.543 34.9872 81.4236 34.5488 85.1308H18.5052V50.8643H16.7517V85.1308H-15.5986V137.846H-59.9848V43.8256H-61.7382V137.833H-97.0192V106.209H-151.776C-151.938 72.8194 -151.938 40.2812 -151.412 38.2773L-152.239 37.9768L-153.028 37.5885C-153.717 38.9537 -153.729 72.5439 -153.554 106.222H-195.874V50.8768H-197.627V107.988H-153.542C-153.429 130.932 -153.228 153.651 -153.116 165.975H-214.109C-214.535 163.32 -216.814 161.291 -219.582 161.291C-222.651 161.291 -225.143 163.784 -225.143 166.852C-225.143 169.921 -222.651 172.413 -219.582 172.413C-216.814 172.413 -214.535 170.384 -214.109 167.729H-151.337V166.84C-151.475 153.075 -151.65 130.444 -151.763 107.988H-98.7726V139.612H-61.7382V191.738H-129.482V241.785C-133.189 242.223 -136.07 245.342 -136.07 249.162C-136.07 253.282 -132.726 256.626 -128.606 256.626C-124.485 256.626 -121.141 253.282 -121.141 249.162C-121.141 245.342 -124.022 242.223 -127.729 241.785V193.491H-59.9848V139.599H-13.8452V86.8843H16.7392V191.725H-25.6682C-26.1065 188.018 -29.2251 185.138 -33.045 185.138C-37.1655 185.138 -40.5095 188.482 -40.5095 192.602C-40.5095 196.723 -37.1655 200.067 -33.045 200.067C-29.2251 200.067 -26.1065 197.186 -25.6682 193.479H16.7392V258.217H-30.1143V336.482C-32.7694 336.907 -34.7984 339.187 -34.7984 341.955C-34.7984 345.023 -32.3061 347.515 -29.2376 347.515C-26.1691 347.515 -23.6768 345.023 -23.6768 341.955C-23.6768 339.187 -25.7057 336.907 -28.3609 336.482V259.97H18.4926V193.479H101.667V148.967H156.486V115.402H200.646V214.582H154.732V323.957C152.44 324.371 150.687 326.374 150.687 328.792C150.687 331.509 152.891 333.714 155.609 333.714C158.327 333.714 160.531 331.509 160.531 328.792C160.531 326.374 158.79 324.371 156.486 323.957Z" fill="#2A9DF4"/>
<path d="M54.9509 245.617C51.8825 245.617 49.3901 248.11 49.3901 251.178C49.3901 254.247 51.8825 256.739 54.9509 256.739C57.7188 256.739 59.9983 254.71 60.4241 252.055H112.788V332.298H74.1257V411.402C71.195 411.552 68.8529 413.969 68.8529 416.938C68.8529 419.906 71.3453 422.499 74.4138 422.499C77.4822 422.499 79.9746 420.006 79.9746 416.938C79.9746 414.37 78.2337 412.241 75.8791 411.59V334.052H114.542V250.289H60.4116C59.9857 247.634 57.7063 245.605 54.9384 245.605L54.9509 245.617Z" fill="#2A9DF4"/>
<path d="M354.984 267.585C351.915 267.585 349.423 270.078 349.423 273.146C349.423 275.914 351.452 278.193 354.107 278.619V295.978H299.927V297.731H355.86V278.619C358.516 278.193 360.544 275.914 360.544 273.146C360.544 270.078 358.052 267.585 354.984 267.585Z" fill="#2A9DF4"/>
<path d="M264.934 364.023V250.302H203.502C203.076 247.647 200.796 245.618 198.029 245.618C194.96 245.618 192.468 248.11 192.468 251.178C192.468 254.247 194.96 256.739 198.029 256.739C200.796 256.739 203.076 254.71 203.502 252.055H263.168V364.01C260.512 364.436 258.484 366.715 258.484 369.483C258.484 372.552 260.976 375.044 264.044 375.044C267.113 375.044 269.605 372.552 269.605 369.483C269.605 366.715 267.576 364.436 264.921 364.01L264.934 364.023Z" fill="#2A9DF4"/>
</svg>
